<svg width="245" height="164" viewBox="0 0 245 164" fill="none" xmlns="http://www.w3.org/2000/svg">
<rect width="245" height="164" rx="4" fill="#4399E1"/>
<path d="M50.5575 65.968L42.6535 51.76C42.8455 51.632 43.1548 51.5253 43.5815 51.44C44.0082 51.3547 44.3922 51.312 44.7335 51.312C45.5228 51.312 46.1842 51.472 46.7175 51.792C47.2508 52.112 47.6988 52.6133 48.0615 53.296L52.6055 61.84L51.7415 63.664L52.0615 63.792L57.3415 53.296C58.0028 51.9733 59.1122 51.312 60.6695 51.312C61.0108 51.312 61.3948 51.3547 61.8215 51.44C62.2482 51.5253 62.5575 51.632 62.7495 51.76L54.8455 66V71.12C54.8455 72.144 54.4722 72.9333 53.7255 73.488C53.0002 74.0213 51.9442 74.288 50.5575 74.288V65.968ZM68.076 74.288C66.6893 74.288 65.4307 74.0427 64.3 73.552C63.1907 73.04 62.316 72.336 61.676 71.44C61.036 70.544 60.716 69.5307 60.716 68.4V63.888C60.716 62.736 61.0253 61.6907 61.644 60.752C62.284 59.8133 63.1587 59.0773 64.268 58.544C65.3773 57.9893 66.6467 57.712 68.076 57.712C69.5053 57.712 70.7747 57.9893 71.884 58.544C73.0147 59.0773 73.8893 59.8133 74.508 60.752C75.148 61.6907 75.468 62.736 75.468 63.888V68.4C75.468 69.5307 75.1373 70.544 74.476 71.44C73.836 72.336 72.9507 73.04 71.82 73.552C70.7107 74.0427 69.4627 74.288 68.076 74.288ZM68.076 70.864C69.1427 70.864 69.9747 70.6187 70.572 70.128C71.1907 69.6373 71.5 68.976 71.5 68.144V64.08C71.5 63.2053 71.1907 62.5013 70.572 61.968C69.9747 61.4133 69.1427 61.136 68.076 61.136C67.0307 61.136 66.1987 61.4133 65.58 61.968C64.9613 62.5013 64.652 63.2053 64.652 64.08V68.144C64.652 68.976 64.9613 69.6373 65.58 70.128C66.1987 70.6187 67.0307 70.864 68.076 70.864ZM92.0015 71.184C92.0015 72.1867 91.6815 72.9547 91.0415 73.488C90.4228 74.0213 89.4735 74.288 88.1935 74.288V72.368C88.4708 72.048 88.7268 71.696 88.9615 71.312L88.7695 71.184C87.4042 73.2533 85.5695 74.288 83.2655 74.288C82.1775 74.288 81.1962 74.0427 80.3215 73.552C79.4682 73.04 78.7855 72.336 78.2735 71.44C77.7828 70.544 77.5375 69.5307 77.5375 68.4V60.144C77.5375 59.2693 77.8575 58.6507 78.4975 58.288C79.1588 57.904 80.1615 57.712 81.5055 57.712V68.112C81.5055 68.944 81.7615 69.6053 82.2735 70.096C82.7855 70.5867 83.5215 70.832 84.4815 70.832C85.5482 70.832 86.4015 70.5013 87.0415 69.84C87.7028 69.1573 88.0335 68.3147 88.0335 67.312V60.144C88.0335 59.2693 88.3535 58.6507 88.9935 58.288C89.6335 57.904 90.6362 57.712 92.0015 57.712V71.184ZM103.987 61.168C102.728 61.168 101.704 61.5093 100.915 62.192C100.126 62.8533 99.731 63.6853 99.731 64.688V71.856C99.731 72.7093 99.411 73.328 98.771 73.712C98.131 74.096 97.1283 74.288 95.763 74.288V60.784C95.763 59.8027 96.0723 59.0453 96.691 58.512C97.331 57.9787 98.291 57.712 99.571 57.712V59.6C99.251 59.9627 98.995 60.3147 98.803 60.656L98.995 60.784C100.339 58.736 102.024 57.712 104.051 57.712C104.968 57.712 105.662 57.9573 106.131 58.448C106.6 58.9173 106.835 59.5147 106.835 60.24C106.835 60.7947 106.686 61.264 106.387 61.648C105.811 61.328 105.011 61.168 103.987 61.168ZM117.826 60.464C117.826 59.6747 118.135 59.024 118.754 58.512C119.372 57.9787 120.29 57.712 121.506 57.712V59.44C121.143 59.9307 120.94 60.2187 120.898 60.304L121.026 60.432C121.708 59.536 122.455 58.864 123.266 58.416C124.098 57.9467 125.122 57.712 126.338 57.712C127.511 57.712 128.546 57.9573 129.442 58.448C130.359 58.9173 131.074 59.5893 131.586 60.464C132.098 61.3387 132.354 62.3413 132.354 63.472V68.528C132.354 69.68 132.066 70.6933 131.49 71.568C130.935 72.4427 130.167 73.1147 129.186 73.584C128.204 74.0533 127.095 74.288 125.858 74.288C125.068 74.288 124.247 74.128 123.394 73.808C122.562 73.4667 121.858 73.008 121.282 72.432L121.154 72.592C121.303 72.8053 121.538 73.0293 121.858 73.264V78C121.858 79.792 120.514 80.688 117.826 80.688V60.464ZM125.09 70.832C126.135 70.832 126.946 70.608 127.522 70.16C128.098 69.712 128.386 69.0827 128.386 68.272V63.728C128.386 62.896 128.098 62.2667 127.522 61.84C126.967 61.392 126.156 61.168 125.09 61.168C124.13 61.168 123.34 61.4027 122.722 61.872C122.103 62.32 121.794 62.8853 121.794 63.568V68.432C121.794 69.0933 122.092 69.6587 122.69 70.128C123.308 70.5973 124.108 70.832 125.09 70.832ZM143.768 61.168C142.51 61.168 141.486 61.5093 140.696 62.192C139.907 62.8533 139.512 63.6853 139.512 64.688V71.856C139.512 72.7093 139.192 73.328 138.552 73.712C137.912 74.096 136.91 74.288 135.544 74.288V60.784C135.544 59.8027 135.854 59.0453 136.472 58.512C137.112 57.9787 138.072 57.712 139.352 57.712V59.6C139.032 59.9627 138.776 60.3147 138.584 60.656L138.776 60.784C140.12 58.736 141.806 57.712 143.832 57.712C144.75 57.712 145.443 57.9573 145.912 58.448C146.382 58.9173 146.616 59.5147 146.616 60.24C146.616 60.7947 146.467 61.264 146.168 61.648C145.592 61.328 144.792 61.168 143.768 61.168ZM153.951 74.288C152.564 74.288 151.306 74.0427 150.175 73.552C149.066 73.04 148.191 72.336 147.551 71.44C146.911 70.544 146.591 69.5307 146.591 68.4V63.888C146.591 62.736 146.9 61.6907 147.519 60.752C148.159 59.8133 149.034 59.0773 150.143 58.544C151.252 57.9893 152.522 57.712 153.951 57.712C155.38 57.712 156.65 57.9893 157.759 58.544C158.89 59.0773 159.764 59.8133 160.383 60.752C161.023 61.6907 161.343 62.736 161.343 63.888V68.4C161.343 69.5307 161.012 70.544 160.351 71.44C159.711 72.336 158.826 73.04 157.695 73.552C156.586 74.0427 155.338 74.288 153.951 74.288ZM153.951 70.864C155.018 70.864 155.85 70.6187 156.447 70.128C157.066 69.6373 157.375 68.976 157.375 68.144V64.08C157.375 63.2053 157.066 62.5013 156.447 61.968C155.85 61.4133 155.018 61.136 153.951 61.136C152.906 61.136 152.074 61.4133 151.455 61.968C150.836 62.5013 150.527 63.2053 150.527 64.08V68.144C150.527 68.976 150.836 69.6373 151.455 70.128C152.074 70.6187 152.906 70.864 153.951 70.864ZM163.857 60.784C163.857 59.8027 164.166 59.0453 164.785 58.512C165.403 57.9787 166.342 57.712 167.601 57.712V59.632C167.217 60.1013 166.961 60.4427 166.833 60.656L167.057 60.784C167.718 59.7813 168.422 59.024 169.169 58.512C169.915 57.9787 170.801 57.712 171.825 57.712C173.681 57.712 174.961 58.6187 175.665 60.432C176.198 59.5787 176.881 58.9173 177.713 58.448C178.545 57.9573 179.483 57.712 180.529 57.712C181.979 57.712 183.131 58.2453 183.985 59.312C184.859 60.3573 185.297 61.7013 185.297 63.344V71.856C185.297 72.7093 184.966 73.328 184.305 73.712C183.665 74.096 182.683 74.288 181.361 74.288V63.664C181.361 62.8747 181.179 62.2453 180.817 61.776C180.475 61.3067 179.942 61.072 179.217 61.072C178.449 61.072 177.798 61.3387 177.265 61.872C176.753 62.384 176.497 63.1947 176.497 64.304V71.856C176.497 72.7093 176.177 73.328 175.537 73.712C174.918 74.096 173.947 74.288 172.625 74.288V63.664C172.625 62.8533 172.454 62.224 172.113 61.776C171.771 61.3067 171.238 61.072 170.513 61.072C169.617 61.072 168.934 61.3813 168.465 62C168.017 62.5973 167.793 63.4187 167.793 64.464V71.856C167.793 72.7093 167.462 73.328 166.801 73.712C166.161 74.096 165.179 74.288 163.857 74.288V60.784ZM194.951 74.288C193.564 74.288 192.306 74.0427 191.175 73.552C190.066 73.04 189.191 72.336 188.551 71.44C187.911 70.544 187.591 69.5307 187.591 68.4V63.888C187.591 62.736 187.9 61.6907 188.519 60.752C189.159 59.8133 190.034 59.0773 191.143 58.544C192.252 57.9893 193.522 57.712 194.951 57.712C196.38 57.712 197.65 57.9893 198.759 58.544C199.89 59.0773 200.764 59.8133 201.383 60.752C202.023 61.6907 202.343 62.736 202.343 63.888V68.4C202.343 69.5307 202.012 70.544 201.351 71.44C200.711 72.336 199.826 73.04 198.695 73.552C197.586 74.0427 196.338 74.288 194.951 74.288ZM194.951 70.864C196.018 70.864 196.85 70.6187 197.447 70.128C198.066 69.6373 198.375 68.976 198.375 68.144V64.08C198.375 63.2053 198.066 62.5013 197.447 61.968C196.85 61.4133 196.018 61.136 194.951 61.136C193.906 61.136 193.074 61.4133 192.455 61.968C191.836 62.5013 191.527 63.2053 191.527 64.08V68.144C191.527 68.976 191.836 69.6373 192.455 70.128C193.074 70.6187 193.906 70.864 194.951 70.864ZM47.5493 116.288C46.1626 116.288 44.9359 116.043 43.8693 115.552C42.8026 115.04 41.9706 114.336 41.3733 113.44C40.7759 112.544 40.4773 111.531 40.4773 110.4V105.92C40.4773 104.704 40.7759 103.627 41.3733 102.688C41.9706 101.749 42.8026 101.024 43.8693 100.512C44.9359 99.9787 46.1519 99.712 47.5173 99.712C48.7973 99.712 49.9279 99.8933 50.9093 100.256C51.9119 100.619 52.6906 101.131 53.2453 101.792C53.7999 102.432 54.0773 103.179 54.0773 104.032C54.0773 104.693 53.8213 105.227 53.3093 105.632C52.7973 106.037 52.1253 106.24 51.2933 106.24C51.0586 106.24 50.8879 106.229 50.7813 106.208C50.7813 105.291 50.4826 104.555 49.8853 104C49.3093 103.445 48.5519 103.168 47.6133 103.168C46.6746 103.168 45.9066 103.435 45.3093 103.968C44.7333 104.501 44.4453 105.205 44.4453 106.08V110.112C44.4453 110.923 44.7439 111.584 45.3413 112.096C45.9386 112.587 46.7066 112.832 47.6453 112.832C48.5839 112.832 49.3519 112.555 49.9493 112C50.5466 111.424 50.8453 110.699 50.8453 109.824C50.9733 109.803 51.1546 109.792 51.3893 109.792C52.2213 109.792 52.8933 109.984 53.4053 110.368C53.9173 110.752 54.1733 111.275 54.1733 111.936C54.1733 112.789 53.8853 113.547 53.3093 114.208C52.7546 114.848 51.9759 115.36 50.9733 115.744C49.9706 116.107 48.8293 116.288 47.5493 116.288ZM62.075 116.288C60.987 116.288 59.9843 116.075 59.067 115.648C58.171 115.221 57.4457 114.613 56.891 113.824C56.3577 113.013 56.091 112.053 56.091 110.944C56.091 109.835 56.379 108.875 56.955 108.064C57.531 107.232 58.3097 106.603 59.291 106.176C60.2937 105.728 61.3923 105.504 62.587 105.504C63.5683 105.504 64.443 105.664 65.211 105.984C66.0003 106.283 66.7257 106.741 67.387 107.36L67.547 107.2C67.355 107.008 67.0243 106.72 66.555 106.336V105.696C66.555 104.821 66.2457 104.128 65.627 103.616C65.0083 103.104 64.1443 102.848 63.035 102.848C61.051 102.848 59.5897 103.573 58.651 105.024C58.1817 104.875 57.787 104.64 57.467 104.32C57.147 103.979 56.987 103.616 56.987 103.232C56.987 102.592 57.275 102.005 57.851 101.472C58.427 100.939 59.2057 100.512 60.187 100.192C61.1683 99.872 62.235 99.712 63.387 99.712C65.6483 99.712 67.3977 100.245 68.635 101.312C69.8723 102.357 70.491 103.787 70.491 105.6V113.6C70.491 114.539 70.1923 115.221 69.595 115.648C68.9977 116.075 68.059 116.288 66.779 116.288V114.976C67.1417 114.613 67.387 114.347 67.515 114.176L67.387 114.016C66.683 114.763 65.9257 115.328 65.115 115.712C64.3257 116.096 63.3123 116.288 62.075 116.288ZM63.099 113.376C64.2083 113.376 65.0723 113.163 65.691 112.736C66.3097 112.309 66.619 111.701 66.619 110.912C66.619 110.144 66.299 109.536 65.659 109.088C65.0403 108.64 64.1977 108.416 63.131 108.416C62.1497 108.416 61.371 108.64 60.795 109.088C60.2403 109.515 59.963 110.123 59.963 110.912C59.963 111.723 60.2403 112.341 60.795 112.768C61.3497 113.173 62.1177 113.376 63.099 113.376ZM74.0755 102.784C74.0755 101.803 74.3848 101.045 75.0035 100.512C75.6435 99.9787 76.6035 99.712 77.8835 99.712V101.632C77.6275 101.931 77.3715 102.272 77.1155 102.656L77.3075 102.784C77.9475 101.824 78.7688 101.077 79.7715 100.544C80.7742 99.9893 81.8835 99.712 83.0995 99.712C84.1875 99.712 85.1475 99.9573 85.9795 100.448C86.8115 100.939 87.4515 101.611 87.8995 102.464C88.3688 103.317 88.6035 104.277 88.6035 105.344V113.856C88.6035 114.709 88.2728 115.328 87.6115 115.712C86.9502 116.096 85.9475 116.288 84.6035 116.288V105.92C84.6035 105.109 84.3582 104.448 83.8675 103.936C83.3982 103.424 82.7048 103.168 81.7875 103.168C80.6995 103.168 79.8035 103.509 79.0995 104.192C78.3955 104.853 78.0435 105.685 78.0435 106.688V113.856C78.0435 114.709 77.7235 115.328 77.0835 115.712C76.4435 116.096 75.4408 116.288 74.0755 116.288V102.784ZM100.419 96C100.419 95.1467 100.75 94.4853 101.411 94.016C102.094 93.5467 103.107 93.312 104.451 93.312V100.736C104.153 100.971 103.918 101.184 103.747 101.376L103.875 101.536C104.451 100.981 105.198 100.544 106.115 100.224C107.054 99.8827 107.918 99.712 108.707 99.712C110.606 99.712 112.121 100.245 113.251 101.312C114.382 102.357 114.947 103.733 114.947 105.44V110.528C114.947 111.637 114.67 112.629 114.115 113.504C113.561 114.379 112.814 115.061 111.875 115.552C110.937 116.043 109.934 116.288 108.867 116.288C107.737 116.288 106.745 116.064 105.891 115.616C105.059 115.147 104.302 114.464 103.619 113.568L103.491 113.696C103.577 113.845 103.683 113.995 103.811 114.144C103.939 114.293 104.035 114.411 104.099 114.496C104.099 115.093 103.811 115.541 103.235 115.84C102.659 116.139 101.721 116.288 100.419 116.288V96ZM107.683 112.832C108.75 112.832 109.561 112.619 110.115 112.192C110.691 111.744 110.979 111.093 110.979 110.24V105.696C110.979 104.885 110.691 104.267 110.115 103.84C109.539 103.392 108.729 103.168 107.683 103.168C106.745 103.168 105.955 103.403 105.315 103.872C104.697 104.341 104.387 104.907 104.387 105.568V110.4C104.387 111.104 104.697 111.691 105.315 112.16C105.934 112.608 106.723 112.832 107.683 112.832ZM125.489 116.288C124.166 116.288 122.961 116.032 121.873 115.52C120.785 114.987 119.921 114.272 119.281 113.376C118.641 112.459 118.321 111.435 118.321 110.304V106.048C118.321 104.853 118.652 103.776 119.313 102.816C119.974 101.856 120.849 101.099 121.937 100.544C123.046 99.9893 124.241 99.712 125.521 99.712C126.78 99.712 127.932 99.9787 128.977 100.512C130.044 101.024 130.886 101.749 131.505 102.688C132.124 103.605 132.433 104.661 132.433 105.856V107.648C132.433 108.117 132.252 108.512 131.889 108.832C131.548 109.152 131.11 109.312 130.577 109.312H122.193V110.016C122.193 110.933 122.47 111.68 123.025 112.256C123.58 112.832 124.412 113.12 125.521 113.12C126.588 113.12 127.377 112.885 127.889 112.416C128.422 111.947 128.689 111.339 128.689 110.592C129.073 110.549 129.34 110.528 129.489 110.528C130.278 110.528 130.897 110.709 131.345 111.072C131.793 111.413 132.017 111.904 132.017 112.544C132.017 113.163 131.729 113.76 131.153 114.336C130.577 114.912 129.788 115.381 128.785 115.744C127.782 116.107 126.684 116.288 125.489 116.288ZM128.817 106.464V105.856C128.817 104.96 128.508 104.235 127.889 103.68C127.27 103.125 126.47 102.848 125.489 102.848C124.508 102.848 123.708 103.125 123.089 103.68C122.492 104.213 122.193 104.939 122.193 105.856V106.464H128.817ZM143.763 96.384C143.763 95.4027 144.104 94.6453 144.787 94.112C145.47 93.5787 146.451 93.312 147.731 93.312V101.632C147.454 101.931 147.198 102.272 146.963 102.656L147.155 102.784C148.627 100.736 150.504 99.712 152.787 99.712C153.875 99.712 154.835 99.9573 155.667 100.448C156.499 100.939 157.139 101.611 157.587 102.464C158.056 103.317 158.291 104.277 158.291 105.344V113.856C158.291 114.709 157.96 115.328 157.299 115.712C156.638 116.096 155.635 116.288 154.291 116.288V105.92C154.291 105.109 154.046 104.448 153.555 103.936C153.086 103.424 152.392 103.168 151.475 103.168C150.387 103.168 149.491 103.509 148.787 104.192C148.083 104.853 147.731 105.685 147.731 106.688V113.856C147.731 114.709 147.4 115.328 146.739 115.712C146.078 116.096 145.086 116.288 143.763 116.288V96.384ZM168.708 116.288C167.385 116.288 166.18 116.032 165.092 115.52C164.004 114.987 163.14 114.272 162.5 113.376C161.86 112.459 161.54 111.435 161.54 110.304V106.048C161.54 104.853 161.87 103.776 162.532 102.816C163.193 101.856 164.068 101.099 165.156 100.544C166.265 99.9893 167.46 99.712 168.74 99.712C169.998 99.712 171.15 99.9787 172.196 100.512C173.262 101.024 174.105 101.749 174.724 102.688C175.342 103.605 175.652 104.661 175.652 105.856V107.648C175.652 108.117 175.47 108.512 175.108 108.832C174.766 109.152 174.329 109.312 173.796 109.312H165.412V110.016C165.412 110.933 165.689 111.68 166.244 112.256C166.798 112.832 167.63 113.12 168.74 113.12C169.806 113.12 170.596 112.885 171.108 112.416C171.641 111.947 171.908 111.339 171.908 110.592C172.292 110.549 172.558 110.528 172.708 110.528C173.497 110.528 174.116 110.709 174.564 111.072C175.012 111.413 175.236 111.904 175.236 112.544C175.236 113.163 174.948 113.76 174.372 114.336C173.796 114.912 173.006 115.381 172.004 115.744C171.001 116.107 169.902 116.288 168.708 116.288ZM172.036 106.464V105.856C172.036 104.96 171.726 104.235 171.108 103.68C170.489 103.125 169.689 102.848 168.708 102.848C167.726 102.848 166.926 103.125 166.308 103.68C165.71 104.213 165.412 104.939 165.412 105.856V106.464H172.036ZM186.956 103.168C185.697 103.168 184.673 103.509 183.884 104.192C183.094 104.853 182.7 105.685 182.7 106.688V113.856C182.7 114.709 182.38 115.328 181.74 115.712C181.1 116.096 180.097 116.288 178.732 116.288V102.784C178.732 101.803 179.041 101.045 179.66 100.512C180.3 99.9787 181.26 99.712 182.54 99.712V101.6C182.22 101.963 181.964 102.315 181.772 102.656L181.964 102.784C183.308 100.736 184.993 99.712 187.02 99.712C187.937 99.712 188.63 99.9573 189.1 100.448C189.569 100.917 189.804 101.515 189.804 102.24C189.804 102.795 189.654 103.264 189.356 103.648C188.78 103.328 187.98 103.168 186.956 103.168ZM198.083 116.288C196.76 116.288 195.555 116.032 194.467 115.52C193.379 114.987 192.515 114.272 191.875 113.376C191.235 112.459 190.915 111.435 190.915 110.304V106.048C190.915 104.853 191.245 103.776 191.907 102.816C192.568 101.856 193.443 101.099 194.531 100.544C195.64 99.9893 196.835 99.712 198.115 99.712C199.373 99.712 200.525 99.9787 201.571 100.512C202.637 101.024 203.48 101.749 204.099 102.688C204.717 103.605 205.027 104.661 205.027 105.856V107.648C205.027 108.117 204.845 108.512 204.483 108.832C204.141 109.152 203.704 109.312 203.171 109.312H194.787V110.016C194.787 110.933 195.064 111.68 195.619 112.256C196.173 112.832 197.005 113.12 198.115 113.12C199.181 113.12 199.971 112.885 200.483 112.416C201.016 111.947 201.283 111.339 201.283 110.592C201.667 110.549 201.933 110.528 202.083 110.528C202.872 110.528 203.491 110.709 203.939 111.072C204.387 111.413 204.611 111.904 204.611 112.544C204.611 113.163 204.323 113.76 203.747 114.336C203.171 114.912 202.381 115.381 201.379 115.744C200.376 116.107 199.277 116.288 198.083 116.288ZM201.411 106.464V105.856C201.411 104.96 201.101 104.235 200.483 103.68C199.864 103.125 199.064 102.848 198.083 102.848C197.101 102.848 196.301 103.125 195.683 103.68C195.085 104.213 194.787 104.939 194.787 105.856V106.464H201.411Z" fill="white"/>
</svg>
