<svg width="30" height="30" viewBox="0 0 30 30" fill="none" xmlns="http://www.w3.org/2000/svg">
<path fill-rule="evenodd" clip-rule="evenodd" d="M8.1066 23.0352C13.2403 22.2855 16.7753 22.3502 21.9158 23.0617C22.6782 23.1672 23.25 23.8275 23.25 24.6132C23.25 24.9732 23.1262 25.323 22.9027 25.5954C22.4915 26.0969 22.0929 26.5649 21.7058 27H23.6867C23.8112 26.8515 23.9365 26.7004 24.0626 26.5466C24.5107 26.0001 24.75 25.3124 24.75 24.6132C24.75 23.0946 23.6416 21.7863 22.1214 21.5759C16.8593 20.8476 13.181 20.7783 7.88985 21.551C6.354 21.7752 5.25 23.1047 5.25 24.6336C5.25 25.3128 5.4711 25.983 5.8905 26.5277C6.01395 26.688 6.13657 26.8454 6.2586 27H8.19068C7.83015 26.5695 7.45995 26.1072 7.07895 25.6125C6.86655 25.3367 6.75 24.99 6.75 24.6336C6.75 23.8261 7.33042 23.1486 8.1066 23.0352Z" fill="#4399E1"/>
<path fill-rule="evenodd" clip-rule="evenodd" d="M15 15.75C17.4853 15.75 19.5 13.7353 19.5 11.25C19.5 8.76472 17.4853 6.75 15 6.75C12.5147 6.75 10.5 8.76472 10.5 11.25C10.5 13.7353 12.5147 15.75 15 15.75ZM15 17.25C18.3137 17.25 21 14.5637 21 11.25C21 7.93628 18.3137 5.25 15 5.25C11.6863 5.25 9 7.93628 9 11.25C9 14.5637 11.6863 17.25 15 17.25Z" fill="#4399E1"/>
<path fill-rule="evenodd" clip-rule="evenodd" d="M15 28.5C22.4558 28.5 28.5 22.4558 28.5 15C28.5 7.54418 22.4558 1.5 15 1.5C7.54418 1.5 1.5 7.54418 1.5 15C1.5 22.4558 7.54418 28.5 15 28.5ZM15 30C23.2843 30 30 23.2843 30 15C30 6.71572 23.2843 0 15 0C6.71572 0 0 6.71572 0 15C0 23.2843 6.71572 30 15 30Z" fill="#4399E1"/>
</svg>
