<svg width="21" height="20" viewBox="0 0 21 20" fill="none" xmlns="http://www.w3.org/2000/svg">
<g clip-path="url(#clip0_132_1144)">
<path d="M17.4749 19.2307H3.5249C2.0999 19.2307 0.899902 17.9999 0.899902 16.5384V7.15373C0.899902 5.69219 2.0999 4.46143 3.5249 4.46143H17.4749C18.8999 4.46143 20.0999 5.69219 20.0999 7.15373V16.5384C20.0999 17.9999 18.8999 19.2307 17.4749 19.2307Z" stroke="#252222" stroke-width="2" stroke-miterlimit="10"/>
<path d="M15.3002 4.46134H5.7002V2.3075C5.7002 1.46135 6.3752 0.769043 7.2002 0.769043H13.8002C14.6252 0.769043 15.3002 1.46135 15.3002 2.3075V4.46134Z" stroke="#252222" stroke-width="2" stroke-miterlimit="10"/>
<path d="M1.5 10.6152H20.1" stroke="#252222" stroke-width="2" stroke-miterlimit="10"/>
<path d="M5.1001 9.38477V12.4617" stroke="#252222" stroke-width="2" stroke-miterlimit="10" stroke-linecap="round"/>
<path d="M15.8999 9.38477V12.4617" stroke="#252222" stroke-width="2" stroke-miterlimit="10" stroke-linecap="round"/>
</g>
<defs>
<clipPath id="clip0_132_1144">
<rect width="21" height="20" fill="white"/>
</clipPath>
</defs>
</svg>
