<svg width="30" height="30" viewBox="0 0 30 30" fill="none" xmlns="http://www.w3.org/2000/svg">
<path d="M22.7126 22.6959V18.156C22.7126 16.6196 21.7826 15.1969 20.237 14.2383C20.9316 13.2124 21.3383 11.9746 21.3383 10.6425C21.3383 7.10756 18.4785 4.23145 14.9637 4.23145C11.4504 4.23145 8.59219 7.10756 8.59219 10.6425C8.59219 11.9918 9.01062 13.2429 9.72118 14.2771C8.21446 15.2357 7.30762 16.6443 7.30762 18.156V22.6963H8.60094V18.156C8.60094 17.0475 9.34003 15.9923 10.5656 15.2696C11.3987 16.0718 12.4444 16.6492 13.611 16.9049L12.2858 23.3677L15.0105 25.5473L17.7352 23.3677L16.3864 16.8862C17.5408 16.6203 18.5766 16.0406 19.3983 15.2384C20.6585 15.9611 21.4193 17.0273 21.4193 18.156V22.6963L22.7126 22.6959ZM15.0105 23.8915L13.7118 22.853L14.8017 17.5378H15.2007L16.3072 22.8538L15.0105 23.8915ZM14.9637 15.7599C12.1637 15.7599 9.88513 13.4642 9.88513 10.6425C9.88513 7.82003 12.1633 5.52515 14.9637 5.52515C17.7653 5.52515 20.0446 7.82003 20.0446 10.6425C20.0446 13.4642 17.7653 15.7599 14.9637 15.7599Z" fill="#4399E1"/>
<circle cx="15" cy="15" r="14.5" stroke="#4399E1"/>
</svg>
