<svg width="20" height="18" viewBox="0 0 20 18" fill="none" xmlns="http://www.w3.org/2000/svg">
<path d="M10 6.795L8.8825 4.55875C8.605 4.005 8.12375 3.20875 7.4425 2.565C6.7725 1.93125 5.97 1.5 5 1.5C2.905 1.5 1.25 3.1575 1.25 5.15C1.25 6.66375 1.9425 7.7325 3.585 9.3625C4.00625 9.78 4.48625 10.2313 5.0175 10.7288C6.4025 12.0288 8.125 13.6462 10 15.8087C11.875 13.6462 13.5975 12.0288 14.9825 10.7288C15.5138 10.2313 15.995 9.77875 16.415 9.3625C18.0575 7.7325 18.75 6.66375 18.75 5.15C18.75 3.1575 17.095 1.5 15 1.5C14.0288 1.5 13.2275 1.93125 12.5575 2.565C11.8762 3.20875 11.395 4.005 11.1175 4.55875L10 6.795ZM10.49 17.16C10.4298 17.2313 10.3548 17.2886 10.2701 17.3279C10.1855 17.3672 10.0933 17.3876 10 17.3876C9.90668 17.3876 9.81449 17.3672 9.72986 17.3279C9.64523 17.2886 9.57019 17.2313 9.51 17.16C7.50875 14.7825 5.6975 13.0825 4.20625 11.6838C1.625 9.26 0 7.73625 0 5.15C0 2.44375 2.2375 0.25 5 0.25C7 0.25 8.39875 1.5625 9.255 2.76C9.58 3.21625 9.8275 3.655 10 4C10.2165 3.56833 10.4655 3.1538 10.745 2.76C11.6012 1.56125 13 0.25 15 0.25C17.7625 0.25 20 2.44375 20 5.15C20 7.73625 18.375 9.26 15.7938 11.6838C14.3025 13.0838 12.4913 14.785 10.49 17.16Z" fill="#21C975"/>
</svg>
