<svg width="100" height="100" viewBox="0 0 100 100" fill="none" xmlns="http://www.w3.org/2000/svg">
<path d="M100 50C100 77.6142 77.6142 100 50 100C22.3858 100 0 77.6142 0 50C0 22.3858 22.3858 0 50 0C77.6142 0 100 22.3858 100 50ZM16.5 50C16.5 68.5015 31.4985 83.5 50 83.5C68.5015 83.5 83.5 68.5015 83.5 50C83.5 31.4985 68.5015 16.5 50 16.5C31.4985 16.5 16.5 31.4985 16.5 50Z" fill="#EAEAEA"/>
<path d="M50 8.25C50 3.69365 53.7184 -0.0693687 58.2128 0.679066C65.8274 1.94707 73.0839 4.968 79.3893 9.54917C87.9317 15.7556 94.29 24.507 97.5528 34.5492C100.816 44.5914 100.816 55.4088 97.5528 65.451C94.2899 75.4931 87.9315 84.2446 79.3891 90.4509C70.8467 96.6573 60.5588 100 49.9998 100C39.4408 100 29.1529 96.6572 20.6106 90.4507C12.0682 84.2443 5.70995 75.4928 2.44709 65.4506C0.0386692 58.0381 -0.59198 50.2033 0.555144 42.5696C1.23223 38.0638 5.96013 35.6903 10.2935 37.0983C14.6268 38.5063 16.8862 43.1815 16.5772 47.7274C16.2886 51.9718 16.8094 56.258 18.1396 60.3519C20.3257 67.0802 24.5857 72.9437 30.3091 77.102C36.0325 81.2603 42.9254 83.5 49.9999 83.5C57.0744 83.5 63.9673 81.2604 69.6907 77.1021C75.4141 72.9438 79.6742 67.0804 81.8604 60.3521C84.0465 53.6239 84.0465 46.3762 81.8604 39.648C79.6743 32.9197 75.4142 27.0562 69.6908 22.8979C66.2084 20.3678 62.2929 18.5479 58.167 17.5108C53.7481 16.3999 50 12.8063 50 8.25Z" fill="#4399E1"/>
<path d="M36.4 57.216C34.828 57.216 33.586 56.886 32.674 56.226C31.774 55.566 31.324 54.654 31.324 53.49C31.324 52.566 31.594 51.81 32.134 51.222C32.674 50.622 33.352 50.274 34.168 50.178V50.79C33.436 50.634 32.836 50.268 32.368 49.692C31.9 49.116 31.666 48.42 31.666 47.604C31.666 46.512 32.092 45.654 32.944 45.03C33.796 44.406 34.948 44.094 36.4 44.094C37.864 44.094 39.016 44.406 39.856 45.03C40.708 45.654 41.134 46.512 41.134 47.604C41.134 48.444 40.906 49.152 40.45 49.728C39.994 50.304 39.412 50.646 38.704 50.754V50.178C39.508 50.298 40.168 50.658 40.684 51.258C41.212 51.858 41.476 52.602 41.476 53.49C41.476 54.654 41.02 55.566 40.108 56.226C39.208 56.886 37.972 57.216 36.4 57.216ZM36.4 54.336C36.916 54.336 37.312 54.24 37.588 54.048C37.864 53.844 38.002 53.556 38.002 53.184C38.002 52.812 37.864 52.53 37.588 52.338C37.312 52.134 36.916 52.032 36.4 52.032C35.884 52.032 35.488 52.134 35.212 52.338C34.936 52.53 34.798 52.812 34.798 53.184C34.798 53.556 34.936 53.844 35.212 54.048C35.488 54.24 35.884 54.336 36.4 54.336ZM36.4 49.152C36.796 49.152 37.102 49.056 37.318 48.864C37.534 48.66 37.642 48.39 37.642 48.054C37.642 47.73 37.534 47.472 37.318 47.28C37.102 47.076 36.796 46.974 36.4 46.974C36.004 46.974 35.698 47.076 35.482 47.28C35.266 47.472 35.158 47.73 35.158 48.054C35.158 48.39 35.266 48.66 35.482 48.864C35.698 49.056 36.004 49.152 36.4 49.152ZM47.193 57.216C45.597 57.216 44.367 56.64 43.503 55.488C42.651 54.324 42.225 52.692 42.225 50.592C42.225 48.48 42.651 46.872 43.503 45.768C44.367 44.652 45.597 44.094 47.193 44.094C48.801 44.094 50.031 44.652 50.883 45.768C51.735 46.872 52.161 48.474 52.161 50.574C52.161 52.686 51.735 54.324 50.883 55.488C50.031 56.64 48.801 57.216 47.193 57.216ZM47.193 54.156C47.637 54.156 47.967 53.88 48.183 53.328C48.399 52.764 48.507 51.852 48.507 50.592C48.507 49.332 48.399 48.444 48.183 47.928C47.967 47.412 47.637 47.154 47.193 47.154C46.749 47.154 46.419 47.412 46.203 47.928C45.987 48.444 45.879 49.332 45.879 50.592C45.879 51.852 45.987 52.764 46.203 53.328C46.419 53.88 46.749 54.156 47.193 54.156ZM59.2099 57H56.1139L63.4939 44.31H66.5899L59.2099 57ZM56.4559 51.852C55.3519 51.852 54.4939 51.492 53.8819 50.772C53.2699 50.052 52.9639 49.11 52.9639 47.946C52.9639 46.77 53.2699 45.834 53.8819 45.138C54.5059 44.442 55.3639 44.094 56.4559 44.094C57.5599 44.094 58.4179 44.454 59.0299 45.174C59.6419 45.882 59.9479 46.806 59.9479 47.946C59.9479 49.11 59.6419 50.052 59.0299 50.772C58.4179 51.492 57.5599 51.852 56.4559 51.852ZM56.4559 49.62C56.6479 49.62 56.7859 49.506 56.8699 49.278C56.9659 49.038 57.0139 48.594 57.0139 47.946C57.0139 47.298 56.9659 46.866 56.8699 46.65C56.7739 46.434 56.6359 46.326 56.4559 46.326C56.2639 46.326 56.1199 46.428 56.0239 46.632C55.9399 46.836 55.8979 47.274 55.8979 47.946C55.8979 48.618 55.9399 49.068 56.0239 49.296C56.1199 49.512 56.2639 49.62 56.4559 49.62ZM66.2479 57.216C65.1439 57.216 64.2859 56.856 63.6739 56.136C63.0619 55.416 62.7559 54.474 62.7559 53.31C62.7559 52.134 63.0619 51.198 63.6739 50.502C64.2979 49.806 65.1559 49.458 66.2479 49.458C67.3519 49.458 68.2099 49.818 68.8219 50.538C69.4339 51.246 69.7399 52.17 69.7399 53.31C69.7399 54.474 69.4339 55.416 68.8219 56.136C68.2099 56.856 67.3519 57.216 66.2479 57.216ZM66.2479 54.984C66.4399 54.984 66.5779 54.87 66.6619 54.642C66.7579 54.402 66.8059 53.958 66.8059 53.31C66.8059 52.662 66.7579 52.23 66.6619 52.014C66.5659 51.798 66.4279 51.69 66.2479 51.69C66.0559 51.69 65.9119 51.792 65.8159 51.996C65.7319 52.2 65.6899 52.638 65.6899 53.31C65.6899 53.982 65.7319 54.432 65.8159 54.66C65.9119 54.876 66.0559 54.984 66.2479 54.984Z" fill="#252222"/>
</svg>
