<svg width="100" height="100" viewBox="0 0 100 100" fill="none" xmlns="http://www.w3.org/2000/svg">
<path d="M100 50C100 77.6142 77.6142 100 50 100C22.3858 100 0 77.6142 0 50C0 22.3858 22.3858 0 50 0C77.6142 0 100 22.3858 100 50ZM16.5 50C16.5 68.5015 31.4985 83.5 50 83.5C68.5015 83.5 83.5 68.5015 83.5 50C83.5 31.4985 68.5015 16.5 50 16.5C31.4985 16.5 16.5 31.4985 16.5 50Z" fill="#EAEAEA"/>
<path d="M50 8.25C50 3.69365 53.7185 -0.0694171 58.2129 0.679021C67.1254 2.16316 75.524 6.04522 82.4724 11.9797C91.5252 19.7115 97.522 30.4197 99.3844 42.1783C101.247 53.9369 98.8524 65.9741 92.632 76.1249C86.4116 86.2757 76.7733 93.8739 65.4508 97.5528C54.1284 101.232 41.8647 100.75 30.8658 96.194C19.8669 91.6381 10.8545 83.3071 5.44967 72.6995C0.0448419 62.0919 -1.3977 49.9039 1.38151 38.3277C3.51467 29.4425 8.02752 21.3652 14.3655 14.9259C17.5616 11.6786 22.7818 12.5374 25.46 16.2235C28.1381 19.9097 27.218 25.02 24.296 28.5161C21.0064 32.452 18.6402 37.1203 17.4256 42.1796C15.5635 49.9356 16.53 58.1016 20.1513 65.2087C23.7725 72.3158 29.8108 77.8975 37.1801 80.95C44.5494 84.0024 52.766 84.3253 60.3521 81.8604C67.9381 79.3955 74.3958 74.3047 78.5634 67.5037C82.7311 60.7027 84.3354 52.6377 83.0876 44.7594C81.8398 36.8812 77.8219 29.7067 71.7565 24.5264C67.8001 21.1473 63.1419 18.7614 58.167 17.5107C53.7482 16.3999 50 12.8063 50 8.25Z" fill="#4399E1"/>
<path d="M35.212 57.216C34.504 57.216 33.814 57.114 33.142 56.91C32.47 56.694 31.852 56.382 31.288 55.974L32.458 53.166C32.89 53.466 33.34 53.694 33.808 53.85C34.288 53.994 34.768 54.066 35.248 54.066C36.064 54.066 36.67 53.832 37.066 53.364C37.462 52.896 37.66 52.206 37.66 51.294V50.574H37.966C37.858 51.03 37.66 51.426 37.372 51.762C37.096 52.086 36.754 52.338 36.346 52.518C35.95 52.686 35.506 52.77 35.014 52.77C34.342 52.77 33.73 52.59 33.178 52.23C32.626 51.858 32.188 51.36 31.864 50.736C31.54 50.1 31.378 49.386 31.378 48.594C31.378 47.718 31.57 46.944 31.954 46.272C32.338 45.588 32.866 45.054 33.538 44.67C34.222 44.286 35.002 44.094 35.878 44.094C37.594 44.094 38.92 44.658 39.856 45.786C40.792 46.914 41.26 48.516 41.26 50.592C41.26 51.972 41.02 53.16 40.54 54.156C40.06 55.14 39.364 55.896 38.452 56.424C37.552 56.952 36.472 57.216 35.212 57.216ZM36.076 49.854C36.316 49.854 36.526 49.794 36.706 49.674C36.886 49.554 37.024 49.392 37.12 49.188C37.216 48.972 37.264 48.72 37.264 48.432C37.264 48.144 37.216 47.892 37.12 47.676C37.024 47.46 36.886 47.298 36.706 47.19C36.526 47.07 36.316 47.01 36.076 47.01C35.836 47.01 35.626 47.07 35.446 47.19C35.266 47.298 35.128 47.46 35.032 47.676C34.936 47.892 34.888 48.144 34.888 48.432C34.888 48.72 34.936 48.972 35.032 49.188C35.128 49.392 35.266 49.554 35.446 49.674C35.626 49.794 35.836 49.854 36.076 49.854ZM47.193 57.216C45.597 57.216 44.367 56.64 43.503 55.488C42.651 54.324 42.225 52.692 42.225 50.592C42.225 48.48 42.651 46.872 43.503 45.768C44.367 44.652 45.597 44.094 47.193 44.094C48.801 44.094 50.031 44.652 50.883 45.768C51.735 46.872 52.161 48.474 52.161 50.574C52.161 52.686 51.735 54.324 50.883 55.488C50.031 56.64 48.801 57.216 47.193 57.216ZM47.193 54.156C47.637 54.156 47.967 53.88 48.183 53.328C48.399 52.764 48.507 51.852 48.507 50.592C48.507 49.332 48.399 48.444 48.183 47.928C47.967 47.412 47.637 47.154 47.193 47.154C46.749 47.154 46.419 47.412 46.203 47.928C45.987 48.444 45.879 49.332 45.879 50.592C45.879 51.852 45.987 52.764 46.203 53.328C46.419 53.88 46.749 54.156 47.193 54.156ZM59.2099 57H56.1139L63.4939 44.31H66.5899L59.2099 57ZM56.4559 51.852C55.3519 51.852 54.4939 51.492 53.8819 50.772C53.2699 50.052 52.9639 49.11 52.9639 47.946C52.9639 46.77 53.2699 45.834 53.8819 45.138C54.5059 44.442 55.3639 44.094 56.4559 44.094C57.5599 44.094 58.4179 44.454 59.0299 45.174C59.6419 45.882 59.9479 46.806 59.9479 47.946C59.9479 49.11 59.6419 50.052 59.0299 50.772C58.4179 51.492 57.5599 51.852 56.4559 51.852ZM56.4559 49.62C56.6479 49.62 56.7859 49.506 56.8699 49.278C56.9659 49.038 57.0139 48.594 57.0139 47.946C57.0139 47.298 56.9659 46.866 56.8699 46.65C56.7739 46.434 56.6359 46.326 56.4559 46.326C56.2639 46.326 56.1199 46.428 56.0239 46.632C55.9399 46.836 55.8979 47.274 55.8979 47.946C55.8979 48.618 55.9399 49.068 56.0239 49.296C56.1199 49.512 56.2639 49.62 56.4559 49.62ZM66.2479 57.216C65.1439 57.216 64.2859 56.856 63.6739 56.136C63.0619 55.416 62.7559 54.474 62.7559 53.31C62.7559 52.134 63.0619 51.198 63.6739 50.502C64.2979 49.806 65.1559 49.458 66.2479 49.458C67.3519 49.458 68.2099 49.818 68.8219 50.538C69.4339 51.246 69.7399 52.17 69.7399 53.31C69.7399 54.474 69.4339 55.416 68.8219 56.136C68.2099 56.856 67.3519 57.216 66.2479 57.216ZM66.2479 54.984C66.4399 54.984 66.5779 54.87 66.6619 54.642C66.7579 54.402 66.8059 53.958 66.8059 53.31C66.8059 52.662 66.7579 52.23 66.6619 52.014C66.5659 51.798 66.4279 51.69 66.2479 51.69C66.0559 51.69 65.9119 51.792 65.8159 51.996C65.7319 52.2 65.6899 52.638 65.6899 53.31C65.6899 53.982 65.7319 54.432 65.8159 54.66C65.9119 54.876 66.0559 54.984 66.2479 54.984Z" fill="#252222"/>
</svg>
