<svg width="100" height="100" viewBox="0 0 100 100" fill="none" xmlns="http://www.w3.org/2000/svg">
<path d="M100 50C100 77.6142 77.6142 100 50 100C22.3858 100 0 77.6142 0 50C0 22.3858 22.3858 0 50 0C77.6142 0 100 22.3858 100 50ZM16.5 50C16.5 68.5015 31.4985 83.5 50 83.5C68.5015 83.5 83.5 68.5015 83.5 50C83.5 31.4985 68.5015 16.5 50 16.5C31.4985 16.5 16.5 31.4985 16.5 50Z" fill="#EAEAEA"/>
<path d="M50 8.25C50 3.69365 53.7183 -0.0693339 58.2128 0.679088C64.4037 1.71001 70.3703 3.90162 75.7893 7.16412C83.5749 11.8515 89.9359 18.5721 94.1883 26.6035C98.4407 34.6349 100.424 43.6735 99.9245 52.7475C99.4251 61.8215 96.4621 70.5879 91.354 78.1042C86.246 85.6205 79.186 91.6025 70.933 95.4072C62.68 99.2118 53.5462 100.695 44.5133 99.6981C35.4804 98.7008 26.8901 95.2606 19.6659 89.7472C14.6376 85.9098 10.4035 81.169 7.16589 75.7923C4.81551 71.8889 6.94545 67.0465 11.1818 65.3692C15.4182 63.6919 20.1392 65.8539 22.7987 69.5535C24.7206 72.227 27.0348 74.6149 29.6761 76.6306C34.5164 80.3246 40.2719 82.6295 46.3239 83.2977C52.3759 83.9658 58.4956 82.9719 64.0251 80.4228C69.5546 77.8737 74.2848 73.8657 77.7072 68.8298C81.1296 63.7939 83.1148 57.9204 83.4494 51.8408C83.784 45.7612 82.4553 39.7054 79.6061 34.3244C76.757 28.9433 72.4952 24.4405 67.2788 21.3C64.4323 19.5862 61.3602 18.3135 58.167 17.5108C53.7481 16.4 50 12.8063 50 8.25Z" fill="#4399E1"/>
<path d="M36.922 57.216C35.206 57.216 33.88 56.652 32.944 55.524C32.008 54.384 31.54 52.782 31.54 50.718C31.54 49.338 31.78 48.156 32.26 47.172C32.752 46.176 33.448 45.414 34.348 44.886C35.248 44.358 36.328 44.094 37.588 44.094C38.296 44.094 38.986 44.196 39.658 44.4C40.342 44.604 40.96 44.916 41.512 45.336L40.342 48.144C39.91 47.844 39.454 47.622 38.974 47.478C38.506 47.322 38.032 47.244 37.552 47.244C36.748 47.244 36.142 47.478 35.734 47.946C35.338 48.402 35.14 49.092 35.14 50.016V50.736H34.834C34.954 50.268 35.152 49.872 35.428 49.548C35.704 49.224 36.04 48.978 36.436 48.81C36.844 48.63 37.294 48.54 37.786 48.54C38.47 48.54 39.082 48.726 39.622 49.098C40.174 49.458 40.612 49.95 40.936 50.574C41.26 51.198 41.422 51.912 41.422 52.716C41.422 53.592 41.23 54.372 40.846 55.056C40.462 55.728 39.934 56.256 39.262 56.64C38.59 57.024 37.81 57.216 36.922 57.216ZM36.724 54.3C36.964 54.3 37.174 54.24 37.354 54.12C37.534 54 37.672 53.838 37.768 53.634C37.864 53.418 37.912 53.166 37.912 52.878C37.912 52.59 37.864 52.344 37.768 52.14C37.672 51.924 37.534 51.756 37.354 51.636C37.174 51.516 36.964 51.456 36.724 51.456C36.484 51.456 36.274 51.516 36.094 51.636C35.914 51.756 35.776 51.924 35.68 52.14C35.584 52.344 35.536 52.59 35.536 52.878C35.536 53.166 35.584 53.418 35.68 53.634C35.776 53.838 35.914 54 36.094 54.12C36.274 54.24 36.484 54.3 36.724 54.3ZM46.005 57.216C45.297 57.216 44.607 57.114 43.935 56.91C43.263 56.694 42.645 56.382 42.081 55.974L43.251 53.166C43.683 53.466 44.133 53.694 44.601 53.85C45.081 53.994 45.561 54.066 46.041 54.066C46.857 54.066 47.463 53.832 47.859 53.364C48.255 52.896 48.453 52.206 48.453 51.294V50.574H48.759C48.651 51.03 48.453 51.426 48.165 51.762C47.889 52.086 47.547 52.338 47.139 52.518C46.743 52.686 46.299 52.77 45.807 52.77C45.135 52.77 44.523 52.59 43.971 52.23C43.419 51.858 42.981 51.36 42.657 50.736C42.333 50.1 42.171 49.386 42.171 48.594C42.171 47.718 42.363 46.944 42.747 46.272C43.131 45.588 43.659 45.054 44.331 44.67C45.015 44.286 45.795 44.094 46.671 44.094C48.387 44.094 49.713 44.658 50.649 45.786C51.585 46.914 52.053 48.516 52.053 50.592C52.053 51.972 51.813 53.16 51.333 54.156C50.853 55.14 50.157 55.896 49.245 56.424C48.345 56.952 47.265 57.216 46.005 57.216ZM46.869 49.854C47.109 49.854 47.319 49.794 47.499 49.674C47.679 49.554 47.817 49.392 47.913 49.188C48.009 48.972 48.057 48.72 48.057 48.432C48.057 48.144 48.009 47.892 47.913 47.676C47.817 47.46 47.679 47.298 47.499 47.19C47.319 47.07 47.109 47.01 46.869 47.01C46.629 47.01 46.419 47.07 46.239 47.19C46.059 47.298 45.921 47.46 45.825 47.676C45.729 47.892 45.681 48.144 45.681 48.432C45.681 48.72 45.729 48.972 45.825 49.188C45.921 49.392 46.059 49.554 46.239 49.674C46.419 49.794 46.629 49.854 46.869 49.854ZM59.2099 57H56.1139L63.4939 44.31H66.5899L59.2099 57ZM56.4559 51.852C55.3519 51.852 54.4939 51.492 53.8819 50.772C53.2699 50.052 52.9639 49.11 52.9639 47.946C52.9639 46.77 53.2699 45.834 53.8819 45.138C54.5059 44.442 55.3639 44.094 56.4559 44.094C57.5599 44.094 58.4179 44.454 59.0299 45.174C59.6419 45.882 59.9479 46.806 59.9479 47.946C59.9479 49.11 59.6419 50.052 59.0299 50.772C58.4179 51.492 57.5599 51.852 56.4559 51.852ZM56.4559 49.62C56.6479 49.62 56.7859 49.506 56.8699 49.278C56.9659 49.038 57.0139 48.594 57.0139 47.946C57.0139 47.298 56.9659 46.866 56.8699 46.65C56.7739 46.434 56.6359 46.326 56.4559 46.326C56.2639 46.326 56.1199 46.428 56.0239 46.632C55.9399 46.836 55.8979 47.274 55.8979 47.946C55.8979 48.618 55.9399 49.068 56.0239 49.296C56.1199 49.512 56.2639 49.62 56.4559 49.62ZM66.2479 57.216C65.1439 57.216 64.2859 56.856 63.6739 56.136C63.0619 55.416 62.7559 54.474 62.7559 53.31C62.7559 52.134 63.0619 51.198 63.6739 50.502C64.2979 49.806 65.1559 49.458 66.2479 49.458C67.3519 49.458 68.2099 49.818 68.8219 50.538C69.4339 51.246 69.7399 52.17 69.7399 53.31C69.7399 54.474 69.4339 55.416 68.8219 56.136C68.2099 56.856 67.3519 57.216 66.2479 57.216ZM66.2479 54.984C66.4399 54.984 66.5779 54.87 66.6619 54.642C66.7579 54.402 66.8059 53.958 66.8059 53.31C66.8059 52.662 66.7579 52.23 66.6619 52.014C66.5659 51.798 66.4279 51.69 66.2479 51.69C66.0559 51.69 65.9119 51.792 65.8159 51.996C65.7319 52.2 65.6899 52.638 65.6899 53.31C65.6899 53.982 65.7319 54.432 65.8159 54.66C65.9119 54.876 66.0559 54.984 66.2479 54.984Z" fill="#252222"/>
</svg>
