<svg width="170" height="63" viewBox="0 0 170 63" fill="none" xmlns="http://www.w3.org/2000/svg">
<rect x="1" y="1" width="168" height="61" stroke="#4399E1" stroke-width="2" stroke-dasharray="91 91"/>
<path d="M60.404 38V25.31H62.726V36.038H68.702V38H60.404ZM69.3767 31.646C69.3767 30.314 69.6167 29.162 70.0967 28.19C70.5887 27.218 71.2907 26.468 72.2027 25.94C73.1147 25.4 74.2007 25.13 75.4607 25.13C76.7087 25.13 77.7887 25.4 78.7007 25.94C79.6127 26.468 80.3147 27.218 80.8067 28.19C81.3107 29.162 81.5627 30.308 81.5627 31.628C81.5627 32.96 81.3107 34.118 80.8067 35.102C80.3147 36.074 79.6127 36.83 78.7007 37.37C77.7887 37.91 76.7087 38.18 75.4607 38.18C74.2007 38.18 73.1147 37.91 72.2027 37.37C71.3027 36.83 70.6067 36.074 70.1147 35.102C69.6227 34.118 69.3767 32.966 69.3767 31.646ZM71.8067 31.646C71.8067 33.074 72.1127 34.19 72.7247 34.994C73.3367 35.798 74.2487 36.2 75.4607 36.2C76.6367 36.2 77.5427 35.798 78.1787 34.994C78.8147 34.19 79.1327 33.074 79.1327 31.646C79.1327 30.206 78.8147 29.09 78.1787 28.298C77.5547 27.506 76.6487 27.11 75.4607 27.11C74.2487 27.11 73.3367 27.506 72.7247 28.298C72.1127 29.09 71.8067 30.206 71.8067 31.646ZM90.0787 38.18C88.6507 38.18 87.4507 37.916 86.4787 37.388C85.5067 36.86 84.7747 36.11 84.2827 35.138C83.7907 34.166 83.5447 33.014 83.5447 31.682C83.5447 30.338 83.8087 29.18 84.3367 28.208C84.8647 27.224 85.6207 26.468 86.6047 25.94C87.6007 25.4 88.7947 25.13 90.1867 25.13C91.1107 25.13 91.9207 25.256 92.6167 25.508C93.3127 25.748 93.9247 26.102 94.4527 26.57L93.6787 28.37C93.2947 28.07 92.9287 27.83 92.5807 27.65C92.2327 27.47 91.8727 27.344 91.5007 27.272C91.1287 27.188 90.6967 27.146 90.2047 27.146C88.8127 27.146 87.7567 27.542 87.0367 28.334C86.3287 29.114 85.9747 30.236 85.9747 31.7C85.9747 33.164 86.3107 34.28 86.9827 35.048C87.6667 35.816 88.7347 36.2 90.1867 36.2C90.6787 36.2 91.1707 36.152 91.6627 36.056C92.1667 35.96 92.6587 35.822 93.1387 35.642L92.7067 36.614V32.816H89.7367V31.124H94.6327V37.226C94.0447 37.526 93.3427 37.76 92.5267 37.928C91.7107 38.096 90.8947 38.18 90.0787 38.18ZM96.8689 31.646C96.8689 30.314 97.1089 29.162 97.5889 28.19C98.0809 27.218 98.7829 26.468 99.6949 25.94C100.607 25.4 101.693 25.13 102.953 25.13C104.201 25.13 105.281 25.4 106.193 25.94C107.105 26.468 107.807 27.218 108.299 28.19C108.803 29.162 109.055 30.308 109.055 31.628C109.055 32.96 108.803 34.118 108.299 35.102C107.807 36.074 107.105 36.83 106.193 37.37C105.281 37.91 104.201 38.18 102.953 38.18C101.693 38.18 100.607 37.91 99.6949 37.37C98.7949 36.83 98.0989 36.074 97.6069 35.102C97.1149 34.118 96.8689 32.966 96.8689 31.646ZM99.2989 31.646C99.2989 33.074 99.6049 34.19 100.217 34.994C100.829 35.798 101.741 36.2 102.953 36.2C104.129 36.2 105.035 35.798 105.671 34.994C106.307 34.19 106.625 33.074 106.625 31.646C106.625 30.206 106.307 29.09 105.671 28.298C105.047 27.506 104.141 27.11 102.953 27.11C101.741 27.11 100.829 27.506 100.217 28.298C99.6049 29.09 99.2989 30.206 99.2989 31.646Z" fill="black"/>
</svg>
