<svg width="50" height="50" viewBox="0 0 50 50" fill="none" xmlns="http://www.w3.org/2000/svg">
<mask id="mask0_241_8" style="mask-type:alpha" maskUnits="userSpaceOnUse" x="0" y="0" width="50" height="50">
<circle cx="25" cy="25" r="25" fill="#D9D9D9"/>
</mask>
<g mask="url(#mask0_241_8)">
<path d="M3.44534 12.0574C0.868827 15.0207 -2.20518 17.5116 -5.63828 19.4179C-5.94851 19.5878 -6.20753 19.8378 -6.3884 20.1418C-6.56926 20.4458 -6.66536 20.7927 -6.66669 21.1464V27.7667L-6.28998 29.6068L-0.157178 25.3435L3.44534 12.0574Z" fill="#346B99"/>
<path d="M-6.66669 27.7661C-6.66669 27.7661 -2.72157 25.0417 0.673154 17.1227C0.673154 17.1227 5.72627 3.69803 19.6033 0.83198C19.6033 0.83198 25.7043 -1.06873 33.1953 0.875606C36.9106 1.81088 40.2378 3.89038 42.7067 6.82005C43.7771 8.07295 44.6088 9.5114 45.1607 11.0641C45.2172 11.2282 45.2234 11.4054 45.1783 11.573C45.1332 11.7405 45.0389 11.8908 44.9076 12.0042C44.7763 12.1177 44.6141 12.1893 44.4417 12.2096C44.2694 12.23 44.0949 12.1983 43.9408 12.1186C42.8497 11.5295 41.2829 11.1468 39.3729 11.9643L28.2011 16.3683L28.4306 46.2805L-6.66669 49.025V27.7661Z" fill="#C4EEFF"/>
<path d="M17.4909 35.28C17.032 34.7429 16.4243 34.3539 15.7444 34.1621C15.0645 33.9703 14.343 33.9844 13.6711 34.2026C13.0577 34.3558 12.5023 34.6843 12.0726 35.1481C6.41477 41.7827 -1.33672 44.6585 -6.66669 45.3637V47.6498L-6.21513 48.9896L17.4909 47.1356V35.28Z" fill="#96C1D6"/>
<path d="M18.1701 19.6503C18.1701 19.6503 12.3245 20.2608 9.09354 25.1308C8.92479 25.3872 8.82862 25.6846 8.81522 25.9913C8.80182 26.298 8.8717 26.6026 9.01744 26.8728C9.16319 27.143 9.37935 27.3687 9.64301 27.526C9.90667 27.6833 10.208 27.7662 10.515 27.7661H18.925L18.1701 19.6503Z" fill="#96C1D6"/>
<path d="M39.3724 11.9651C39.3724 11.9651 32.7611 14.5496 30.089 23.3988C29.369 25.7186 29.3368 28.1974 29.9962 30.5352C30.9245 33.7279 33.4269 37.5148 39.8986 39.0155L28.4308 46.2813C28.4308 46.2813 12.5906 44.5859 15.5483 23.6847C15.8849 21.3058 16.6763 17.5575 17.9673 15.5309C21.3544 11.7243 28.1139 11.7454 30.7562 12.504C31.3329 12.6694 34.4778 10.4019 35.2242 10.1695C36.394 9.80496 37.2812 10.0187 38.1808 10.8518C38.5462 11.1884 39.1966 11.35 39.3724 11.9651Z" fill="#6295D3"/>
<path d="M33.4692 12.8658C35.036 11.8276 36.3386 12.268 37.3227 13.1242C37.9646 12.6692 38.6513 12.2813 39.3723 11.9664C39.2179 11.4241 38.9156 10.9356 38.4992 10.5555C38.0491 10.1555 37.5016 9.88111 36.9118 9.75999C36.322 9.63887 35.7107 9.67527 35.1394 9.86552C34.452 10.093 33.7952 10.4043 33.1839 10.7924C32.4598 11.2496 31.5872 11.4095 30.7481 11.2388C29.9089 11.0681 29.1682 10.5798 28.6803 9.87606C28.6239 9.79336 28.5753 9.71356 28.5337 9.6416C28.5078 9.59593 28.4722 9.55648 28.4294 9.52604C28.3866 9.49559 28.3376 9.47488 28.286 9.46537C28.2343 9.45585 28.1812 9.45776 28.1303 9.47095C28.0795 9.48414 28.0321 9.50831 27.9916 9.54174L26.8117 10.5191C26.1603 11.0581 25.3414 11.353 24.496 11.3531H23.8935C22.8299 11.3483 21.7928 11.6847 20.9346 12.3129C19.75 13.1985 18.7397 14.2957 17.9547 15.5492C19.2384 14.6335 20.805 13.9047 22.5211 13.9388C22.5211 13.9388 25.2137 15.1006 27.3025 12.8662C27.3033 12.8658 29.7602 15.3237 33.4692 12.8658Z" fill="#346B99"/>
<path d="M15.1821 28.4461C15.1637 31.503 14.5924 35.1243 15.3345 37.2281L28.43 46.2807L39.8977 39.0149C38.6079 38.7256 37.3554 38.29 36.1645 37.7164C34.4102 39.6085 30.0503 39.6068 30.0503 39.6068C18.8776 36.2505 21.2204 25.2755 21.2204 25.2755C21.2204 25.2755 17.6404 27.0749 15.1821 28.4461Z" fill="#346B99"/>
<path d="M7.22839 28.5998C7.22839 28.5998 11.1286 21.6885 19.6627 22.8656C19.9865 22.9061 20.2952 23.026 20.5615 23.2147C20.8277 23.4034 21.0431 23.655 21.1886 23.9471C21.5554 24.7181 21.4791 25.8658 19.2138 27.0857C19.2138 27.0857 20.6384 30.1138 16.8893 31.4114C16.8893 31.4114 17.9561 32.7607 17.0468 34.8589C17.0468 34.8589 15.7443 36.9837 13.8059 38.3822L11.697 35.5794L7.22839 28.5998Z" fill="#C4EEFF"/>
<path d="M13.6449 38.6212C15.5834 37.2225 16.5775 35.941 17.0464 34.8582C16.5853 34.4721 16.0338 34.2094 15.4434 34.0947C14.8531 33.9799 14.2433 34.0169 13.6711 34.2022C13.0703 34.3849 12.5221 34.7091 12.0727 35.1477C11.938 35.2828 11.8126 35.4269 11.6974 35.579L13.6449 38.6212Z" fill="#96C1D6"/>
<path d="M36.7906 23.2272C36.4887 23.5154 36.277 23.8851 36.1812 24.2914C36.0853 24.6976 36.1095 25.123 36.2508 25.5158C36.3579 25.8076 36.5092 26.0814 36.6992 26.3275C37.9497 27.9443 40.5393 27.0209 40.5437 24.977C40.5437 24.9528 40.5437 24.9284 40.5437 24.9036C40.541 24.5356 40.4459 24.1742 40.267 23.8526C40.2408 23.8055 40.2122 23.7554 40.1816 23.7029C40.0162 23.4175 39.788 23.1735 39.5143 22.9893C39.2406 22.8051 38.9286 22.6855 38.6019 22.6397C38.2752 22.5939 37.9424 22.6229 37.6286 22.7247C37.3148 22.8265 37.0282 22.9983 36.7906 23.2272Z" fill="#6295D3"/>
<path d="M27.9502 34.0876C27.7808 33.7117 27.6224 33.3241 27.4794 32.9358C27.4036 32.73 27.2491 32.5627 27.0499 32.4707C26.8508 32.3788 26.6233 32.3697 26.4175 32.4456C26.2116 32.5214 26.0444 32.6758 25.9524 32.875C25.8605 33.0741 25.8514 33.3016 25.9272 33.5075C26.0836 33.9319 26.2568 34.3552 26.4421 34.7668C27.6216 37.3856 30.4511 40.6455 34.2622 42.5853L35.9187 41.5358C31.7603 39.7608 28.9161 36.2331 27.9502 34.0876Z" fill="#346B99"/>
<path d="M46.7903 35.0629C49.2144 36.3777 53.5221 38.5482 56.5652 39.7654L58.8601 40.769L59.4953 43.7721V53.0441H56.5652L24.1235 51.6146L24.1983 43.9233C24.1983 43.9233 35.4529 43.303 43.6555 35.4781C44.0547 35.0655 44.5815 34.8 45.1506 34.7246C45.7197 34.6492 46.2976 34.7685 46.7903 35.0629Z" fill="#346B99"/>
<path d="M56.7041 39.4197C53.6606 38.2023 49.4169 35.9706 46.9934 34.656C46.4594 34.3675 45.8476 34.2559 45.2462 34.3374C44.6448 34.4189 44.0847 34.6892 43.6468 35.1094C35.4442 42.9362 24.1989 43.3272 24.1989 43.3272L23.6456 53.0447H35.739C36.1255 51.8732 36.3725 50.6602 36.4748 49.4308C36.5258 48.8544 36.6137 48.2818 36.7378 47.7166C36.8788 47.0959 37.1454 46.5107 37.5213 45.9971C37.8972 45.4835 38.3744 45.0523 38.9234 44.7303C39.4724 44.4082 40.0815 44.2021 40.7133 44.1247C41.345 44.0472 41.9859 44.1 42.5965 44.2799L49.5551 46.3191C49.6523 46.3476 49.7563 46.3418 49.8497 46.3025C49.9431 46.2632 50.0201 46.1929 50.0676 46.1034C50.1152 46.014 50.1304 45.9109 50.1108 45.8115C50.0912 45.7121 50.0379 45.6225 49.9599 45.5578C48.7498 44.5598 47.301 43.4357 46.1841 42.583C45.9708 42.4198 45.7973 42.2103 45.6767 41.9703C45.5561 41.7303 45.4916 41.4661 45.4879 41.1975C45.4842 40.9289 45.5414 40.663 45.6554 40.4198C45.7693 40.1766 45.9369 39.9623 46.1457 39.7933L46.1806 39.765C46.447 39.546 46.7739 39.4137 47.1176 39.3858C47.4613 39.358 47.8053 39.4359 48.1034 39.6091C51.168 41.4031 56.8813 43.0658 59.4969 43.7727V40.0428C58.4141 40.2506 56.7041 39.4197 56.7041 39.4197Z" fill="#C4EEFF"/>
<path d="M36.4742 49.4307C36.5252 48.8542 36.6131 48.2817 36.7372 47.7164C36.8669 47.1367 37.1074 46.5875 37.4454 46.099C34.4476 45.1539 31.514 44.0161 28.663 42.6927C27.1939 43.0224 25.701 43.2347 24.1983 43.3276L23.645 53.0452H35.739C36.1254 51.8734 36.3722 50.6602 36.4742 49.4307Z" fill="#96C1D6"/>
<path d="M16.9618 37.8752C21.3206 41.6601 33.5071 49.7575 56.5651 53.0441C50.6746 52.7976 44.5257 52.4879 41.9094 53.0441H21.2454C18.8691 52.5704 16.6411 52.4695 14.6815 53.0441H2.46222L-6.03174 52.6512L-6.66669 48.1561C-6.66669 48.1561 4.34762 46.7008 13.3657 38.0135C14.4235 36.9944 15.8528 36.9121 16.9618 37.8752Z" fill="#6295D3"/>
<path d="M13.3913 43.4936C13.8119 43.1779 14.2484 42.884 14.6991 42.613C15.1996 42.3143 15.7792 42.1753 16.3608 42.2146C16.9423 42.2539 17.498 42.4695 17.9538 42.8328C25.5339 48.8126 36.5412 51.8455 41.9094 53.0441H56.5651C33.5071 49.7567 21.483 41.271 17.1241 37.4861C16.5901 37.0201 15.901 36.7709 15.1925 36.7874C14.4839 36.8039 13.8072 37.0849 13.2954 37.5752C4.27733 46.2627 -6.66669 47.6498 -6.66669 47.6498V53.0441H2.46118C3.26918 50.6947 4.33977 49.4465 5.29891 48.7913C5.79608 48.456 6.39164 48.2977 6.98969 48.342C7.58775 48.3863 8.1535 48.6306 8.59584 49.0355C10.3444 50.613 12.659 51.9967 14.6815 53.0441H21.2454C18.4134 51.6829 15.7498 49.9963 13.3084 48.0182C12.9682 47.7444 12.6951 47.3963 12.5101 47.0007C12.3251 46.605 12.233 46.1723 12.241 45.7356C12.249 45.2989 12.3569 44.8698 12.5562 44.4812C12.7556 44.0926 13.0413 43.7548 13.3913 43.4936Z" fill="#C4EEFF"/>
<path d="M5.58774 33.0537C5.4836 33.0529 5.37977 33.0424 5.2776 33.0222C5.17518 33.0016 5.07509 32.9708 4.97884 32.9302C4.88231 32.8908 4.79015 32.8414 4.70386 32.7828C4.52778 32.6703 4.37829 32.5209 4.26574 32.3449C4.14958 32.1709 4.06834 31.9759 4.02652 31.7709C3.98449 31.5663 3.98449 31.3553 4.02652 31.1507C4.04688 31.0482 4.07764 30.9481 4.11832 30.8519C4.15786 30.7554 4.20726 30.6633 4.26574 30.5769C4.32289 30.49 4.38824 30.4087 4.46092 30.3342C4.64717 30.1502 4.8755 30.0146 5.1261 29.9389C5.3767 29.8632 5.64198 29.8499 5.89891 29.9C6.00132 29.919 6.1015 29.9485 6.19787 29.9881C6.29326 30.0298 6.38515 30.0791 6.47265 30.1355C6.55973 30.1941 6.64107 30.2607 6.71559 30.3346C6.78838 30.41 6.85496 30.4912 6.9147 30.5773C6.97192 30.6638 7.02007 30.756 7.05839 30.8523C7.09901 30.9485 7.1297 31.0486 7.14999 31.1511C7.19229 31.3557 7.19229 31.5668 7.14999 31.7714C7.12964 31.8738 7.09895 31.9739 7.05839 32.0701C7.01999 32.1665 6.97184 32.2587 6.9147 32.3453C6.85496 32.4314 6.78838 32.5126 6.71559 32.588C6.41564 32.8857 6.01034 33.0531 5.58774 33.0537Z" fill="#5C91C4"/>
<path d="M43.3249 17.8912C43.27 17.891 43.2153 17.8854 43.1615 17.8747C43.1091 17.8639 43.0579 17.848 43.0085 17.8274C42.9585 17.8075 42.9107 17.7825 42.8659 17.7527C42.8207 17.7223 42.7784 17.6877 42.7398 17.6493C42.6217 17.5293 42.5434 17.3758 42.5157 17.2097C42.4879 17.0437 42.512 16.8731 42.5846 16.7212C42.6573 16.5693 42.775 16.4434 42.9217 16.3608C43.0684 16.2781 43.237 16.2427 43.4046 16.2593C43.5721 16.2759 43.7305 16.3437 43.8582 16.4535C43.9858 16.5633 44.0765 16.7098 44.118 16.873C44.1594 17.0362 44.1496 17.2082 44.0898 17.3656C44.03 17.523 43.9232 17.6582 43.7839 17.7527C43.7386 17.7817 43.6908 17.8066 43.6412 17.8274C43.591 17.8477 43.5391 17.8636 43.4861 17.8747C43.4331 17.8854 43.379 17.891 43.3249 17.8912Z" fill="#346B99"/>
<path d="M48.5048 30.9359C48.286 30.9352 48.0763 30.8482 47.9214 30.6937C47.7665 30.5391 47.6789 30.3297 47.6777 30.1109C47.6781 30.0561 47.6837 30.0014 47.6943 29.9476C47.7051 29.8951 47.721 29.8439 47.7418 29.7946C47.7838 29.6941 47.8449 29.6028 47.9217 29.5258C48.0375 29.411 48.1845 29.3327 48.3444 29.3008C48.5043 29.2688 48.67 29.2845 48.8211 29.3459C48.8712 29.3664 48.919 29.3921 48.9638 29.4224C49.0547 29.483 49.1327 29.561 49.1933 29.6519C49.2236 29.6967 49.2493 29.7445 49.2698 29.7946C49.2896 29.8442 49.3056 29.8954 49.3173 29.9476C49.3273 30.0014 49.3321 30.0561 49.3318 30.1109C49.3316 30.2194 49.3102 30.3268 49.2685 30.4269C49.2269 30.5271 49.1659 30.6181 49.0891 30.6947C49.0123 30.7713 48.9212 30.832 48.8209 30.8734C48.7207 30.9148 48.6132 30.936 48.5048 30.9359Z" fill="#346B99"/>
<path d="M25.7139 30.1099C25.5149 30.1096 25.3226 30.0376 25.1724 29.9071C25.0222 29.7765 24.9241 29.5962 24.8961 29.3992C24.8772 29.268 24.8598 29.1364 24.8438 29.0043C24.8306 28.8965 24.8388 28.7872 24.8679 28.6825C24.897 28.5779 24.9464 28.48 25.0133 28.3944C25.1484 28.2217 25.3466 28.1096 25.5644 28.083C25.7821 28.0564 26.0015 28.1174 26.1742 28.2525C26.347 28.3876 26.459 28.5858 26.4857 28.8036C26.5006 28.9246 26.5165 29.0453 26.5336 29.1658C26.549 29.2734 26.543 29.383 26.5159 29.4882C26.4889 29.5935 26.4414 29.6924 26.3761 29.7793C26.3108 29.8662 26.229 29.9394 26.1354 29.9946C26.0418 30.0499 25.9383 30.0862 25.8307 30.1014C25.792 30.1069 25.7529 30.1097 25.7139 30.1099Z" fill="#346B99"/>
<path d="M33.5783 11.3023C33.1395 11.4993 31.1952 11.8829 30.4149 11.7557C28.1474 14.2686 25.6006 18.0221 24.8738 23.565C24.8314 23.8869 24.7959 24.2138 24.768 24.5368C24.7586 24.645 24.7707 24.754 24.8034 24.8576C24.8362 24.9612 24.8891 25.0573 24.959 25.1404C25.0289 25.2235 25.1146 25.2921 25.211 25.3421C25.3074 25.3921 25.4127 25.4227 25.521 25.432C25.5451 25.4341 25.5691 25.4351 25.5929 25.4351C25.7998 25.4349 25.9991 25.3572 26.1515 25.2172C26.3038 25.0773 26.3982 24.8853 26.416 24.6792C26.4419 24.3811 26.4745 24.0796 26.5138 23.7807C27.5003 16.2566 32.4335 12.2633 33.5783 11.3023Z" fill="#346B99"/>
<path d="M21.146 19.3765C21.2028 19.3886 21.2607 19.3948 21.3188 19.3949C21.5082 19.3947 21.6917 19.3296 21.8388 19.2104C21.9859 19.0912 22.0876 18.9251 22.127 18.7399C22.8157 15.5035 23.9198 13.4141 25.2966 11.6041L23.2423 11.6678C22.0478 13.4949 21.1178 15.5341 20.5089 18.3954C20.4863 18.5017 20.4849 18.6113 20.5047 18.7182C20.5245 18.825 20.5651 18.9268 20.6242 19.0179C20.6834 19.109 20.7599 19.1876 20.8494 19.2491C20.939 19.3106 21.0397 19.3539 21.146 19.3765Z" fill="#346B99"/>
</g>
</svg>
