<svg width="50" height="50" viewBox="0 0 50 50" fill="none" xmlns="http://www.w3.org/2000/svg">
<mask id="mask0_656_543" style="mask-type:alpha" maskUnits="userSpaceOnUse" x="0" y="0" width="50" height="50">
<circle cx="25" cy="25" r="25" fill="#D9D9D9"/>
</mask>
<g mask="url(#mask0_656_543)">
<path d="M3.44503 12.0574C0.868522 15.0207 -2.20549 17.5116 -5.63859 19.4179C-5.94882 19.5878 -6.20784 19.8378 -6.3887 20.1418C-6.56957 20.4458 -6.66566 20.7927 -6.66699 21.1464V27.7667L-6.29028 29.6068L-0.157484 25.3435L3.44503 12.0574Z" fill="#346B99"/>
<path d="M-6.66699 27.7661C-6.66699 27.7661 -2.72188 25.0417 0.672849 17.1227C0.672849 17.1227 5.72597 3.69803 19.603 0.83198C19.603 0.83198 25.704 -1.06873 33.195 0.875606C36.9102 1.81088 40.2375 3.89038 42.7064 6.82005C43.7768 8.07295 44.6085 9.5114 45.1604 11.0641C45.2169 11.2282 45.2231 11.4054 45.178 11.573C45.1329 11.7405 45.0386 11.8908 44.9073 12.0042C44.776 12.1177 44.6138 12.1893 44.4414 12.2096C44.2691 12.23 44.0946 12.1983 43.9405 12.1186C42.8494 11.5295 41.2826 11.1468 39.3726 11.9643L28.2008 16.3683L28.4303 46.2805L-6.66699 49.025V27.7661Z" fill="#AAD5FA"/>
<path d="M17.4906 35.2801C17.0317 34.743 16.4239 34.354 15.7441 34.1622C15.0642 33.9705 14.3427 33.9846 13.6708 34.2027C13.0574 34.3559 12.502 34.6844 12.0723 35.1482C6.41446 41.7828 -1.33703 44.6586 -6.66699 45.3638V47.6499L-6.21544 48.9897L17.4906 47.1357V35.2801Z" fill="#507AA6"/>
<path d="M18.17 19.6504C18.17 19.6504 12.3244 20.2609 9.09342 25.1309C8.92467 25.3873 8.82849 25.6847 8.8151 25.9914C8.8017 26.2981 8.87158 26.6027 9.01732 26.8729C9.16306 27.1431 9.37923 27.3688 9.64289 27.5261C9.90655 27.6834 10.2079 27.7663 10.5149 27.7662H18.9249L18.17 19.6504Z" fill="#507AA6"/>
<path d="M39.3718 11.9653C39.3718 11.9653 32.7606 14.5497 30.0885 23.3989C29.3685 25.7187 29.3363 28.1975 29.9956 30.5353C30.924 33.728 33.4263 37.5149 39.898 39.0156L28.4303 46.2814C28.4303 46.2814 12.5901 44.586 15.5477 23.6848C15.8843 21.3059 16.6758 17.5576 17.9668 15.531C21.3538 11.7244 28.1133 11.7455 30.7557 12.5041C31.3323 12.6695 34.4773 10.402 35.2237 10.1696C36.3935 9.80508 37.2807 10.0189 38.1803 10.8519C38.5456 11.1885 39.1961 11.3502 39.3718 11.9653Z" fill="#507AA6"/>
<path d="M33.4687 12.8658C35.0355 11.8277 36.338 12.2681 37.3222 13.1243C37.964 12.6693 38.6508 12.2813 39.3718 11.9664C39.2174 11.4242 38.915 10.9356 38.4986 10.5555C38.0486 10.1555 37.5011 9.88117 36.9112 9.76005C36.3214 9.63893 35.7101 9.67533 35.1388 9.86558C34.4514 10.0931 33.7947 10.4044 33.1833 10.7925C32.4593 11.2497 31.5866 11.4096 30.7475 11.2389C29.9084 11.0681 29.1676 10.5799 28.6798 9.87613C28.6233 9.79342 28.5748 9.71362 28.5332 9.64167C28.5073 9.59599 28.4716 9.55654 28.4288 9.5261C28.386 9.49565 28.3371 9.47495 28.2854 9.46543C28.2337 9.45591 28.1806 9.45782 28.1298 9.47101C28.0789 9.48421 28.0316 9.50837 27.9911 9.5418L26.8111 10.5191C26.1598 11.0581 25.3409 11.3531 24.4955 11.3532H23.893C22.8294 11.3483 21.7923 11.6847 20.9341 12.313C19.7495 13.1985 18.7391 14.2958 17.9541 15.5493C19.2379 14.6336 20.8044 13.9048 22.5205 13.9389C22.5205 13.9389 25.2131 15.1006 27.302 12.8662C27.3028 12.8658 29.7597 15.3237 33.4687 12.8658Z" fill="#2E5288"/>
<path d="M15.1814 28.446C15.163 31.5029 14.5917 35.1242 15.3337 37.228L28.4292 46.2806L39.897 39.0147C38.6072 38.7255 37.3547 38.2899 36.1638 37.7163C34.4095 39.6083 30.0496 39.6067 30.0496 39.6067C18.8769 36.2504 21.2197 25.2754 21.2197 25.2754C21.2197 25.2754 17.6397 27.0748 15.1814 28.446Z" fill="#2E5288"/>
<path d="M7.22852 28.5998C7.22852 28.5998 11.1288 21.6886 19.6628 22.8656C19.9866 22.9062 20.2954 23.0261 20.5616 23.2148C20.8278 23.4035 21.0432 23.6551 21.1887 23.9472C21.5555 24.7182 21.4792 25.8659 19.214 27.0857C19.214 27.0857 20.6385 30.1139 16.8894 31.4115C16.8894 31.4115 17.9563 32.7608 17.0469 34.8589C17.0469 34.8589 15.7444 36.9838 13.806 38.3823L11.6971 35.5795L7.22852 28.5998Z" fill="#AAD5FA"/>
<path d="M13.6447 38.6211C15.5832 37.2224 16.5773 35.9409 17.0463 34.8581C16.5852 34.472 16.0336 34.2093 15.4433 34.0946C14.8529 33.9798 14.2431 34.0168 13.671 34.2021C13.0701 34.3847 12.522 34.709 12.0725 35.1476C11.9378 35.2827 11.8125 35.4268 11.6973 35.5789L13.6447 38.6211Z" fill="#507AA6"/>
<path d="M36.7901 23.2272C36.4882 23.5155 36.2765 23.8852 36.1806 24.2914C36.0848 24.6977 36.109 25.123 36.2502 25.5158C36.3574 25.8077 36.5086 26.0815 36.6987 26.3275C37.9491 27.9444 40.5388 27.021 40.5431 24.977C40.5431 24.9528 40.5431 24.9284 40.5431 24.9036C40.5405 24.5356 40.4453 24.1743 40.2665 23.8527C40.2402 23.8055 40.2117 23.7555 40.1811 23.703C40.0156 23.4176 39.7874 23.1735 39.5137 22.9893C39.2401 22.8051 38.9281 22.6856 38.6014 22.6397C38.2747 22.5939 37.9418 22.623 37.628 22.7248C37.3142 22.8266 37.0277 22.9984 36.7901 23.2272Z" fill="#2E5288"/>
<path d="M27.9498 34.0876C27.7805 33.7117 27.6221 33.324 27.4791 32.9357C27.4033 32.7299 27.2488 32.5626 27.0496 32.4707C26.8505 32.3787 26.623 32.3697 26.4172 32.4455C26.2113 32.5213 26.0441 32.6758 25.9521 32.8749C25.8602 33.0741 25.8511 33.3016 25.9269 33.5074C26.0833 33.9319 26.2565 34.3551 26.4418 34.7667C27.6213 37.3855 30.4508 40.6454 34.2619 42.5852L35.9184 41.5357C31.7599 39.7607 28.9158 36.2331 27.9498 34.0876Z" fill="#2E5288"/>
<path d="M46.7899 35.063C49.2139 36.3778 53.5217 38.5483 56.5647 39.7655L58.8597 40.7691L59.4949 43.7722V53.0442H56.5647L24.123 51.6147L24.1979 43.9233C24.1979 43.9233 35.4525 43.3031 43.6551 35.4782C44.0542 35.0656 44.5811 34.8 45.1502 34.7247C45.7193 34.6493 46.2971 34.7685 46.7899 35.063Z" fill="#346B99"/>
<path d="M56.7039 39.4197C53.6605 38.2023 49.4168 35.9706 46.9932 34.6561C46.4593 34.3675 45.8475 34.256 45.2461 34.3375C44.6446 34.419 44.0846 34.6893 43.6467 35.1095C35.444 42.9362 24.1988 43.3272 24.1988 43.3272L23.6455 53.0448H35.7389C36.1254 51.8732 36.3724 50.6602 36.4747 49.4309C36.5257 48.8544 36.6136 48.2819 36.7377 47.7166C36.8787 47.096 37.1453 46.5108 37.5212 45.9971C37.8971 45.4835 38.3743 45.0524 38.9233 44.7304C39.4722 44.4083 40.0814 44.2022 40.7132 44.1247C41.3449 44.0473 41.9858 44.1001 42.5964 44.2799L49.5549 46.3192C49.6522 46.3477 49.7562 46.3418 49.8496 46.3025C49.943 46.2632 50.0199 46.1929 50.0675 46.1035C50.1151 46.014 50.1303 45.9109 50.1107 45.8115C50.0911 45.7121 50.0378 45.6226 49.9598 45.5579C48.7496 44.5599 47.3009 43.4358 46.184 42.5831C45.9707 42.4199 45.7972 42.2103 45.6766 41.9703C45.556 41.7303 45.4914 41.4661 45.4877 41.1976C45.484 40.929 45.5413 40.6631 45.6552 40.4198C45.7692 40.1766 45.9368 39.9624 46.1455 39.7933L46.1805 39.765C46.4468 39.546 46.7738 39.4138 47.1175 39.3859C47.4612 39.358 47.8052 39.4359 48.1033 39.6091C51.1678 41.4031 56.8811 43.0659 59.4968 43.7728V40.0429C58.414 40.2507 56.7039 39.4197 56.7039 39.4197Z" fill="#AAD5FA"/>
<path d="M36.4737 49.4306C36.5247 48.8542 36.6126 48.2816 36.7367 47.7164C36.8664 47.1367 37.1069 46.5875 37.4449 46.0989C34.4471 45.1538 31.5135 44.016 28.6625 42.6926C27.1935 43.0223 25.7005 43.2346 24.1978 43.3276L23.6445 53.0451H35.7385C36.1249 51.8734 36.3717 50.6602 36.4737 49.4306Z" fill="#507AA6"/>
<path d="M16.9615 37.8752C21.3203 41.6601 33.5068 49.7575 56.5648 53.0441C50.6743 52.7976 44.5254 52.4879 41.9091 53.0441H21.2451C18.8688 52.5704 16.6408 52.4695 14.6812 53.0441H2.46191L-6.03204 52.6512L-6.66699 48.1561C-6.66699 48.1561 4.34732 46.7008 13.3654 38.0135C14.4232 36.9944 15.8525 36.9121 16.9615 37.8752Z" fill="#2E5288"/>
<path d="M13.391 43.4936C13.8116 43.1779 14.2481 42.884 14.6988 42.613C15.1993 42.3143 15.7789 42.1753 16.3605 42.2146C16.942 42.2539 17.4977 42.4695 17.9535 42.8328C25.5336 48.8126 36.5409 51.8455 41.9091 53.0441H56.5648C33.5068 49.7567 21.4826 41.271 17.1238 37.4861C16.5898 37.0201 15.9007 36.7709 15.1922 36.7874C14.4836 36.8039 13.8069 37.0849 13.2951 37.5752C4.27702 46.2627 -6.66699 47.6498 -6.66699 47.6498V53.0441H2.46088C3.26888 50.6947 4.33946 49.4465 5.2986 48.7913C5.79577 48.456 6.39133 48.2977 6.98939 48.342C7.58744 48.3863 8.15319 48.6306 8.59554 49.0355C10.3441 50.613 12.6587 51.9967 14.6812 53.0441H21.2451C18.4131 51.6829 15.7495 49.9963 13.3081 48.0182C12.9679 47.7444 12.6948 47.3963 12.5098 47.0007C12.3248 46.605 12.2327 46.1723 12.2407 45.7356C12.2487 45.2989 12.3565 44.8698 12.5559 44.4812C12.7553 44.0926 13.041 43.7548 13.391 43.4936Z" fill="#AAD5FA"/>
<path d="M5.58786 33.0535C5.48373 33.0528 5.37989 33.0422 5.27772 33.0221C5.17531 33.0015 5.07522 32.9707 4.97896 32.9301C4.88243 32.8906 4.79028 32.8412 4.70398 32.7827C4.52791 32.6702 4.37841 32.5208 4.26586 32.3448C4.1497 32.1707 4.06846 31.9758 4.02664 31.7708C3.98461 31.5662 3.98461 31.3552 4.02664 31.1505C4.047 31.0481 4.07776 30.948 4.11844 30.8518C4.15798 30.7553 4.20738 30.6631 4.26586 30.5768C4.32301 30.4898 4.38837 30.4086 4.46104 30.3341C4.64729 30.1501 4.87563 30.0144 5.12622 29.9388C5.37682 29.8631 5.6421 29.8498 5.89903 29.8999C6.00144 29.9189 6.10162 29.9484 6.198 29.988C6.29339 30.0297 6.38528 30.079 6.47278 30.1354C6.55986 30.1939 6.6412 30.2606 6.71571 30.3345C6.7885 30.4099 6.85508 30.4911 6.91482 30.5772C6.97204 30.6637 7.02019 30.7558 7.05852 30.8522C7.09913 30.9484 7.12982 31.0485 7.15011 31.151C7.19242 31.3556 7.19242 31.5666 7.15011 31.7712C7.12976 31.8737 7.09908 31.9738 7.05852 32.07C7.02011 32.1664 6.97196 32.2586 6.91482 32.3452C6.85508 32.4313 6.7885 32.5125 6.71571 32.5879C6.41577 32.8856 6.01046 33.0529 5.58786 33.0535Z" fill="#2A4B7F"/>
<path d="M43.3243 17.8913C43.2695 17.891 43.2148 17.8855 43.161 17.8748C43.1086 17.8639 43.0574 17.8481 43.008 17.8274C42.958 17.8076 42.9102 17.7825 42.8653 17.7528C42.8201 17.7224 42.7779 17.6878 42.7392 17.6494C42.6211 17.5294 42.5429 17.3759 42.5151 17.2098C42.4874 17.0437 42.5114 16.8731 42.5841 16.7212C42.6567 16.5693 42.7744 16.4435 42.9211 16.3608C43.0678 16.2782 43.2365 16.2428 43.404 16.2594C43.5716 16.2759 43.73 16.3438 43.8576 16.4536C43.9853 16.5634 44.076 16.7098 44.1174 16.873C44.1589 17.0362 44.1491 17.2082 44.0893 17.3657C44.0295 17.5231 43.9227 17.6582 43.7833 17.7528C43.738 17.7817 43.6903 17.8067 43.6407 17.8274C43.5905 17.8478 43.5386 17.8637 43.4856 17.8748C43.4325 17.8855 43.3785 17.891 43.3243 17.8913Z" fill="#346B99"/>
<path d="M48.5048 30.9359C48.286 30.9353 48.0763 30.8482 47.9214 30.6937C47.7665 30.5392 47.6789 30.3298 47.6777 30.111C47.6781 30.0561 47.6837 30.0014 47.6943 29.9476C47.7051 29.8952 47.721 29.844 47.7418 29.7946C47.7838 29.6942 47.8449 29.6029 47.9217 29.5259C48.0375 29.4111 48.1845 29.3328 48.3444 29.3008C48.5043 29.2688 48.67 29.2846 48.8211 29.346C48.8712 29.3665 48.919 29.3921 48.9638 29.4225C49.0547 29.4831 49.1327 29.5611 49.1933 29.652C49.2236 29.6968 49.2493 29.7446 49.2698 29.7946C49.2896 29.8443 49.3056 29.8955 49.3173 29.9476C49.3273 30.0015 49.3321 30.0562 49.3318 30.111C49.3316 30.2194 49.3102 30.3268 49.2685 30.427C49.2269 30.5272 49.1659 30.6181 49.0891 30.6947C49.0123 30.7713 48.9212 30.8321 48.8209 30.8735C48.7207 30.9148 48.6132 30.9361 48.5048 30.9359Z" fill="#346B99"/>
<path d="M25.714 30.1099C25.515 30.1096 25.3228 30.0376 25.1726 29.9071C25.0224 29.7765 24.9243 29.5962 24.8963 29.3992C24.8774 29.268 24.86 29.1364 24.844 29.0043C24.8308 28.8965 24.839 28.7872 24.8681 28.6825C24.8972 28.5779 24.9466 28.48 25.0135 28.3944C25.1486 28.2217 25.3468 28.1096 25.5646 28.083C25.7823 28.0564 26.0017 28.1174 26.1744 28.2525C26.3472 28.3876 26.4592 28.5858 26.4859 28.8036C26.5007 28.9246 26.5167 29.0453 26.5338 29.1658C26.5492 29.2734 26.5431 29.383 26.5161 29.4882C26.4891 29.5935 26.4415 29.6924 26.3763 29.7793C26.311 29.8662 26.2292 29.9394 26.1356 29.9946C26.042 30.0499 25.9385 30.0862 25.8309 30.1014C25.7922 30.1069 25.7531 30.1097 25.714 30.1099Z" fill="#2E5288"/>
<path d="M33.578 11.3022C33.1393 11.4993 31.1949 11.8828 30.4146 11.7557C28.1472 14.2686 25.6003 18.022 24.8736 23.5649C24.8312 23.8869 24.7956 24.2137 24.7677 24.5367C24.7584 24.6449 24.7704 24.754 24.8032 24.8575C24.836 24.9611 24.8888 25.0572 24.9588 25.1403C25.0287 25.2235 25.1143 25.292 25.2107 25.342C25.3072 25.3921 25.4125 25.4226 25.5207 25.432C25.5449 25.434 25.5688 25.4351 25.5927 25.4351C25.7996 25.4348 25.9988 25.3571 26.1512 25.2172C26.3036 25.0772 26.398 24.8853 26.4158 24.6792C26.4416 24.381 26.4743 24.0796 26.5136 23.7806C27.5 16.2565 32.4332 12.2632 33.578 11.3022Z" fill="#2E5288"/>
<path d="M21.1454 19.3764C21.2022 19.3885 21.2601 19.3947 21.3182 19.3948C21.5075 19.3946 21.6911 19.3295 21.8382 19.2103C21.9853 19.0911 22.087 18.925 22.1264 18.7398C22.8151 15.5034 23.9192 13.4139 25.296 11.604L23.2417 11.6677C22.0472 13.4948 21.1172 15.534 20.5083 18.3953C20.4857 18.5016 20.4843 18.6112 20.5041 18.718C20.5238 18.8248 20.5645 18.9267 20.6236 19.0178C20.6828 19.1089 20.7593 19.1875 20.8488 19.249C20.9383 19.3105 21.0391 19.3538 21.1454 19.3764Z" fill="#2E5288"/>
</g>
</svg>
